<svg xmlns="http://www.w3.org/2000/svg" width="153.782" height="155.351" viewBox="0 0 153.782 155.351">
  <g id="deactivated-main-menu-icon" transform="translate(-69.6 -60.548)">
    <path id="패스_9" data-name="패스 9" d="M142.65,65.44,75.24,131.785Z" transform="translate(-0.967 -0.769)" fill="none" stroke="#717070" stroke-miterlimit="10" stroke-width="4"/>
    <line id="선_8" data-name="선 8" x2="66.808" y2="66.353" transform="translate(152.151 64.664)" fill="none" stroke="#717070" stroke-miterlimit="10" stroke-width="4"/>
    <path id="패스_10" data-name="패스 10" d="M166,65.478a9.33,9.33,0,0,1,1.013-1.013,8.648,8.648,0,0,1,1.754-1.182,7.054,7.054,0,0,1,3.281-.734,7.532,7.532,0,0,1,3.369.91,8.926,8.926,0,0,1,1.865,1.233,7.824,7.824,0,0,1,.859.859" transform="translate(-25.103)" fill="none" stroke="#717070" stroke-miterlimit="10" stroke-width="4"/>
    <path id="패스_11" data-name="패스 11" d="M246,155.58a10.541,10.541,0,0,1,2.643,6.056A10.813,10.813,0,0,1,246,169.5a9.484,9.484,0,0,1-4.786,3.164,15.53,15.53,0,0,1-3.883.294h-5.373v52.361s-2.107,13.044-13.426,13.044c-12.765,0-22.463.734-24.166,0l-1.343-1.343V197.136s-1.028-9.1-8.31-9.1H174.23" transform="translate(-27.291 -24.74)" fill="none" stroke="#717070" stroke-miterlimit="10" stroke-width="4"/>
    <path id="패스_12" data-name="패스 12" d="M147.966,188.041h-12.4c-7.289,0-8.317,9.1-8.317,9.1v39.882l-1.343,1.343c-1.7.734-11.4,0-24.166,0-11.312,0-13.426-13.044-13.426-13.044V172.955H82.942a15.439,15.439,0,0,1-3.883-.294,9.484,9.484,0,0,1-4.786-3.164,10.8,10.8,0,0,1-2.643-7.862,10.6,10.6,0,0,1,2.643-6.056" transform="translate(0 -24.74)" fill="none" stroke="#717070" stroke-miterlimit="10" stroke-width="4"/>
  </g>
</svg>
